<?xml version="1.0" standalone="no"?>
<!DOCTYPE svg PUBLIC "-//W3C//DTD SVG 20010904//EN"
 "http://www.w3.org/TR/2001/REC-SVG-20010904/DTD/svg10.dtd">
<svg version="1.0" xmlns="http://www.w3.org/2000/svg"
 width="338.000000pt" height="338.000000pt" viewBox="0 0 338.000000 338.000000"
 preserveAspectRatio="xMidYMid meet">

<g transform="translate(0.000000,338.000000) scale(0.100000,-0.100000)"
fill="#000000" stroke="none">
<path d="M1478 3046 c-126 -34 -202 -133 -229 -294 -14 -84 -5 -183 37 -405
l26 -137 -28 -23 c-104 -81 -351 -291 -413 -351 -135 -131 -238 -290 -277
-431 -9 -33 -18 -109 -20 -169 -3 -97 -6 -112 -26 -135 -20 -22 -20 -23 -2 -8
11 9 23 17 26 17 12 0 15 -39 4 -51 -8 -9 -8 -10 1 -5 8 4 18 -5 26 -26 13
-30 13 -35 -7 -58 l-21 -25 21 18 c21 17 22 17 42 -15 l21 -33 -22 -18 -22
-18 23 11 c20 10 28 8 48 -11 13 -12 24 -26 24 -30 0 -4 -52 -35 -115 -70
-167 -90 -174 -102 -10 -17 l140 72 50 -39 c62 -47 191 -109 270 -130 33 -9
108 -21 168 -27 59 -6 107 -14 107 -18 0 -4 -17 -34 -38 -66 -55 -85 -160
-162 -201 -149 -11 3 -32 34 -49 68 -34 70 -61 99 -115 122 -76 32 -167 -24
-167 -103 0 -108 136 -187 277 -161 131 24 242 110 313 240 30 54 40 64 65 67
124 11 274 64 382 135 197 128 294 287 311 511 l7 89 85 23 c228 62 639 145
883 179 26 3 47 11 47 16 0 6 -14 8 -32 5 -427 -69 -641 -112 -881 -176 -77
-21 -109 -25 -111 -17 -15 53 -25 122 -19 128 25 23 610 171 888 224 158 30
170 33 163 41 -6 5 -215 -32 -245 -43 -14 -5 -13 -1 5 24 18 26 22 45 22 112
l0 80 37 10 c21 6 70 18 110 27 40 9 71 20 68 24 -3 4 -47 -3 -97 -16 -51 -13
-99 -24 -106 -24 -16 0 -13 171 4 177 6 2 28 -10 49 -27 21 -16 45 -30 54 -30
12 0 11 5 -7 18 -13 10 -24 30 -25 46 -2 31 1 33 92 56 23 6 41 14 37 17 -3 3
-37 -2 -76 -12 -53 -13 -74 -15 -83 -6 -6 6 -21 11 -33 11 -12 0 -25 6 -27 13
-3 6 -6 -4 -6 -24 l-1 -35 -147 -44 c-82 -24 -154 -45 -160 -48 -10 -3 -13 11
-13 52 l0 55 153 49 c83 27 207 64 274 82 67 18 120 37 118 41 -5 8 -177 -39
-391 -107 -78 -24 -144 -44 -148 -44 -3 0 -6 55 -6 123 l0 124 -190 -50 -190
-50 0 -142 c0 -102 -4 -145 -12 -152 -7 -5 -60 -29 -118 -53 -58 -24 -160 -69
-227 -101 -116 -54 -125 -57 -160 -46 -33 9 -189 12 -263 5 -24 -3 -25 -1 -41
117 -27 191 -29 181 52 245 39 30 113 99 164 152 76 79 103 115 137 185 42 86
43 91 43 188 0 110 -11 142 -69 203 -61 66 -145 91 -228 68z m194 -83 c50 -53
70 -97 76 -168 3 -48 0 -71 -18 -113 -12 -29 -27 -52 -32 -52 -6 0 -7 8 -3 18
44 106 26 224 -46 306 -49 55 -29 63 23 9z m-92 -81 c83 -82 88 -212 14 -360
-28 -57 -60 -98 -135 -175 -60 -61 -102 -97 -108 -91 -8 8 -30 187 -47 370 -8
90 9 170 46 221 37 50 81 72 144 73 43 0 53 -4 86 -38z m110 -48 c0 -46 -17
-43 -22 4 -3 20 -8 46 -12 57 -7 17 -5 17 13 -4 13 -14 21 -37 21 -57z m0
-244 c0 -5 -4 -10 -10 -10 -5 0 -10 5 -10 10 0 6 5 10 10 10 6 0 10 -4 10 -10z
m835 -190 c9 -14 -42 -34 -158 -60 -88 -20 -122 -22 -104 -4 6 6 223 71 244
73 6 1 15 -4 18 -9z m-59 -59 c-7 -11 -85 -26 -93 -18 -6 6 51 25 80 26 10 1
16 -3 13 -8z m104 -60 c0 -29 -5 -53 -12 -58 -25 -15 -338 -130 -343 -125 -3
3 -5 31 -5 63 l0 58 168 55 c92 30 173 55 180 55 8 1 12 -15 12 -48z m398 -94
c5 -23 -10 -21 -26 4 -12 18 -11 20 5 17 10 -2 19 -11 21 -21z m-404 5 c3 -5
3 -24 0 -44 l-6 -34 -57 4 c-53 4 -61 2 -94 -28 -20 -17 -38 -39 -41 -48 -5
-16 -113 -62 -143 -62 -9 0 -13 16 -13 45 0 53 -8 49 188 121 161 58 159 58
166 46z m334 -114 l-3 -92 -35 -13 c-19 -6 -117 -35 -218 -63 -179 -50 -476
-145 -604 -194 l-64 -24 -62 60 c-35 34 -61 62 -60 63 2 1 33 14 70 29 62 27
68 27 89 12 58 -40 155 -6 194 68 17 32 30 42 85 62 78 28 70 27 70 9 0 -27
38 -55 75 -55 76 0 134 43 144 107 l6 38 135 42 c193 59 181 62 178 -49z
m-1557 -45 c26 -167 30 -154 -48 -188 -132 -56 -224 -178 -240 -317 -5 -44
-10 -50 -56 -80 -28 -18 -98 -68 -156 -111 -77 -57 -106 -74 -113 -65 -21 33
0 180 42 290 52 140 205 320 425 499 66 54 122 96 124 94 2 -3 12 -58 22 -122z
m1113 36 c-11 -12 -15 -28 -11 -48 7 -34 -1 -45 -20 -30 -20 17 -16 66 7 89
26 26 48 16 24 -11z m31 -19 c-10 -11 -23 -20 -28 -20 -6 0 -2 9 8 20 10 11
23 20 28 20 6 0 2 -9 -8 -20z m-285 -15 c0 -24 -2 -24 -47 -18 -27 3 -50 7
-52 9 -5 5 62 32 82 33 12 1 17 -7 17 -24z m-184 -66 c-14 -17 -26 -43 -26
-58 0 -24 -8 -30 -79 -60 l-80 -32 -42 21 c-26 14 -38 25 -32 31 11 11 263
128 276 129 5 0 -3 -14 -17 -31z m464 21 c0 -5 -4 -10 -10 -10 -5 0 -10 5 -10
10 0 6 5 10 10 10 6 0 10 -4 10 -10z m-413 -41 c-3 -12 -1 -32 5 -45 13 -29 4
-42 -17 -24 -15 12 -21 71 -8 83 14 14 25 6 20 -14z m23 -16 c0 -19 -3 -24
-10 -17 -6 6 -8 18 -4 27 9 24 14 21 14 -10z m800 -8 c0 -32 -2 -35 -19 -25
-29 15 -61 12 -108 -9 -67 -31 -93 -103 -53 -147 l21 -21 -189 -47 c-104 -26
-255 -66 -335 -90 -81 -24 -147 -40 -147 -36 0 3 -16 32 -35 64 -19 32 -35 62
-35 66 0 11 479 169 685 225 94 26 175 48 180 50 28 9 35 3 35 -30z m-769 -28
c-1 -12 -15 -9 -19 4 -3 6 1 10 8 8 6 -3 11 -8 11 -12z m659 -41 c0 -8 -5 -18
-11 -22 -11 -6 -9 -32 6 -66 10 -25 -21 -24 -35 1 -15 29 -12 62 7 83 19 22
33 23 33 4z m-1195 -25 l29 -12 -94 -53 c-52 -29 -98 -50 -101 -47 -4 3 -10
35 -13 70 l-7 64 78 -5 c43 -3 91 -11 108 -17z m1206 -22 l-10 -24 0 26 c-1
14 2 29 6 33 12 12 14 -9 4 -35z m-1416 -41 c6 -64 4 -74 -12 -86 -58 -42
-265 -163 -270 -158 -10 9 27 109 59 159 17 26 48 63 71 82 40 34 112 75 133
75 7 0 14 -30 19 -72z m292 18 l35 -24 -134 -66 c-73 -36 -137 -66 -141 -66
-5 0 -7 16 -5 36 3 35 7 38 103 90 55 30 101 54 103 54 2 0 19 -11 39 -24z
m215 -60 c84 -85 146 -218 169 -366 15 -98 6 -171 -32 -247 -35 -73 -59 -86
-26 -15 19 41 22 64 21 177 0 115 -3 139 -28 210 -35 102 -75 171 -137 239
-27 30 -49 57 -49 60 0 13 39 -15 82 -58z m948 49 c0 -8 -4 -15 -9 -15 -13 0
-22 16 -14 24 11 11 23 6 23 -9z m-1088 -52 c13 -16 35 -43 47 -60 l22 -33
-23 -9 c-38 -15 -229 -97 -290 -124 -66 -30 -68 -28 -68 62 l0 57 138 67 c75
37 140 67 143 67 3 0 17 -12 31 -27z m-354 -89 c2 -27 -4 -32 -92 -81 -75 -43
-103 -53 -140 -53 -25 0 -46 3 -46 8 1 10 253 162 265 158 6 -1 11 -16 13 -32z
m450 -67 c35 -92 41 -83 -103 -136 -71 -27 -165 -62 -208 -80 -43 -17 -80 -31
-82 -31 -3 0 -5 31 -5 69 l0 69 138 60 c75 33 157 69 182 80 25 11 48 21 52
21 4 1 15 -23 26 -52z m-444 -29 c9 -79 8 -86 -16 -99 -19 -10 -25 -8 -43 15
-12 15 -39 33 -60 40 l-38 13 49 28 c27 15 58 34 69 41 30 20 32 18 39 -38z
m-120 -95 c16 -15 26 -35 24 -47 -4 -28 -20 -25 -36 7 -7 14 -26 30 -42 36
-38 13 -39 31 -1 31 17 0 38 -10 55 -27z m705 -4 c16 -46 25 -129 14 -129 -5
0 -16 36 -24 80 -16 80 -10 107 10 49z m-929 -6 c0 -24 -12 -36 -77 -78 -43
-27 -111 -74 -152 -103 -56 -40 -76 -50 -82 -40 -15 23 -10 32 33 63 23 17 89
65 147 107 58 42 112 77 119 78 7 0 12 -12 12 -27z m833 -31 c5 -29 6 -59 4
-66 -3 -7 -27 -19 -54 -26 -26 -7 -121 -39 -210 -72 -89 -32 -166 -58 -173
-58 -7 0 -10 21 -8 62 l3 63 70 29 c128 53 330 126 345 123 10 -1 18 -21 23
-55z m-1239 -47 c-23 -151 -17 -234 26 -347 23 -62 90 -144 145 -178 54 -34
41 -44 -16 -13 -87 47 -157 140 -185 248 -18 66 -17 205 1 283 14 60 33 108
40 100 1 -1 -3 -43 -11 -93z m756 10 c0 -70 -3 -74 -87 -106 l-27 -10 27 25
c32 30 47 65 47 110 0 35 6 46 27 46 9 0 13 -17 13 -65z m-182 43 c14 -14 16
-42 2 -33 -14 9 -32 45 -22 45 4 0 13 -5 20 -12z m-144 -61 c11 -23 21 -44 23
-47 2 -3 -29 -24 -69 -47 -40 -23 -113 -67 -162 -97 -48 -31 -90 -56 -92 -56
-2 0 -9 19 -16 42 -12 41 -12 41 21 67 65 50 256 180 266 180 6 1 19 -18 29
-42z m226 -2 c0 -8 -7 -15 -15 -15 -8 0 -15 7 -15 15 0 8 7 15 15 15 8 0 15
-7 15 -15z m575 -222 c-45 -202 -181 -337 -393 -388 -40 -10 -74 -16 -76 -14
-2 2 2 34 10 72 8 37 18 134 22 214 l7 147 50 19 c28 11 127 46 220 78 l170
58 3 -56 c2 -32 -4 -90 -13 -130z m-621 120 c34 2 75 11 93 20 57 30 64 25 61
-44 l-3 -60 -145 -60 c-80 -34 -197 -85 -260 -115 l-115 -55 -27 33 c-16 18
-28 35 -28 39 0 4 101 58 224 120 123 63 223 115 221 117 -4 5 -235 -108 -352
-172 l-102 -56 -21 40 -20 40 70 45 c39 25 112 69 162 98 l91 53 45 -23 c36
-18 58 -22 106 -20z m146 -264 c-6 -79 -12 -151 -15 -159 -2 -8 -9 -34 -15
-57 -10 -41 -12 -43 -49 -43 -57 0 -183 35 -257 72 -36 18 -88 54 -117 79
l-52 47 90 42 c50 23 153 69 230 101 77 33 149 63 160 68 11 5 23 6 28 2 4 -4
3 -72 -3 -152z m560 35 c0 -8 -5 -12 -10 -9 -6 4 -8 11 -5 16 9 14 15 11 15
-7z m-1196 -90 c21 -24 36 -47 32 -51 -7 -7 -86 73 -86 87 0 18 15 8 54 -36z
m157 -405 c31 -33 35 -44 19 -54 -6 -3 -25 10 -44 29 -18 20 -38 36 -45 36 -6
0 -11 5 -11 10 0 23 53 9 81 -21z m-11 -94 c-1 -5 -12 4 -25 20 -14 17 -25 35
-25 40 1 6 12 -3 25 -20 14 -16 25 -34 25 -40z m60 -1 c0 -9 -5 -14 -12 -12
-18 6 -21 28 -4 28 9 0 16 -7 16 -16z"/>
<path d="M1608 2795 c4 -16 7 -64 7 -105 -1 -86 -26 -149 -96 -242 l-41 -53
41 44 c64 68 105 161 109 246 3 49 -1 81 -12 105 -14 33 -15 33 -8 5z"/>
<path d="M1591 2643 c-1 -6 -4 -20 -7 -30 -5 -17 -5 -17 6 0 6 10 9 23 6 30
-3 9 -5 9 -5 0z"/>
<path d="M2861 2024 c0 -11 3 -14 6 -6 3 7 2 16 -1 19 -3 4 -6 -2 -5 -13z"/>
<path d="M2374 1936 c11 -9 27 -16 35 -15 14 0 14 1 1 6 -8 3 -24 10 -35 15
-20 9 -20 9 -1 -6z"/>
<path d="M2013 1828 c11 -10 31 -18 46 -17 24 1 23 2 -6 9 -18 4 -39 11 -46
16 -7 5 -4 1 6 -8z"/>
<path d="M1128 1762 c-46 -49 -81 -125 -92 -198 -4 -21 4 -5 17 36 23 77 71
158 109 184 12 9 19 18 16 21 -3 3 -25 -16 -50 -43z"/>
<path d="M1068 1738 c-22 -34 -42 -74 -31 -63 14 15 55 85 50 85 -3 0 -11 -10
-19 -22z"/>
<path d="M2651 1804 c0 -11 3 -14 6 -6 3 7 2 16 -1 19 -3 4 -6 -2 -5 -13z"/>
<path d="M2400 1799 c11 -8 8 -9 -15 -5 -25 5 -27 4 -12 -5 21 -12 51 -4 42
11 -3 5 -12 10 -18 10 -7 0 -6 -4 3 -11z"/>
<path d="M2340 1780 c8 -5 20 -10 25 -10 6 0 3 5 -5 10 -8 5 -19 10 -25 10 -5
0 -3 -5 5 -10z"/>
<path d="M2290 1770 c-8 -5 -10 -10 -5 -10 6 0 17 5 25 10 8 5 11 10 5 10 -5
0 -17 -5 -25 -10z"/>
<path d="M1540 1326 c-33 -12 -33 -13 -10 -19 13 -3 31 -2 39 3 9 5 12 10 6
10 -5 0 -3 5 5 10 20 13 3 11 -40 -4z"/>
<path d="M1850 1156 c-19 -93 -66 -174 -148 -255 -66 -65 -69 -70 -28 -41 56
38 120 116 152 185 24 51 50 153 41 162 -3 2 -10 -20 -17 -51z"/>
<path d="M1768 1029 c-16 -31 -20 -45 -11 -37 16 13 47 77 41 83 -2 2 -15 -19
-30 -46z"/>
<path d="M873 1130 c-18 -11 -33 -22 -33 -25 0 -4 10 1 22 9 26 19 42 21 32 4
-4 -7 -3 -8 5 -4 6 4 9 11 6 16 -3 4 1 11 7 13 7 3 9 6 3 6 -5 1 -25 -8 -42
-19z"/>
<path d="M1241 2420 c0 -8 6 -37 13 -65 8 -27 15 -43 15 -35 0 8 -6 38 -13 65
-8 28 -15 43 -15 35z"/>
<path d="M2173 2265 c0 -33 2 -45 4 -27 2 18 2 45 0 60 -2 15 -4 0 -4 -33z"/>
<path d="M1272 2285 c0 -11 4 -31 8 -45 6 -20 8 -21 8 -5 0 11 -4 31 -8 45 -6
20 -8 21 -8 5z"/>
<path d="M1251 2274 c0 -11 3 -14 6 -6 3 7 2 16 -1 19 -3 4 -6 -2 -5 -13z"/>
<path d="M2970 2266 c0 -2 8 -10 18 -17 15 -13 16 -12 3 4 -13 16 -21 21 -21
13z"/>
<path d="M3010 2166 c0 -2 8 -10 18 -17 15 -13 16 -12 3 4 -13 16 -21 21 -21
13z"/>
<path d="M798 1803 c-78 -82 -139 -171 -183 -267 -36 -78 -66 -186 -64 -232 1
-18 4 -10 10 24 27 161 123 339 268 495 24 26 42 47 39 47 -3 0 -34 -30 -70
-67z"/>
<path d="M662 1678 c-31 -46 -82 -142 -82 -155 0 -4 18 25 39 65 22 41 46 81
54 90 18 22 30 42 23 42 -3 0 -18 -19 -34 -42z"/>
<path d="M2908 1523 c7 -3 16 -2 19 1 4 3 -2 6 -13 5 -11 0 -14 -3 -6 -6z"/>
<path d="M2858 1513 c7 -3 16 -2 19 1 4 3 -2 6 -13 5 -11 0 -14 -3 -6 -6z"/>
<path d="M2808 1503 c7 -3 16 -2 19 1 4 3 -2 6 -13 5 -11 0 -14 -3 -6 -6z"/>
<path d="M2878 1493 c7 -3 16 -2 19 1 4 3 -2 6 -13 5 -11 0 -14 -3 -6 -6z"/>
<path d="M2838 1483 c7 -3 16 -2 19 1 4 3 -2 6 -13 5 -11 0 -14 -3 -6 -6z"/>
<path d="M2132 1295 c-6 -108 -50 -240 -113 -332 -22 -32 -26 -42 -11 -29 33
28 98 164 117 241 9 39 15 90 12 115 l-4 45 -1 -40z"/>
<path d="M2141 1183 c-6 -21 -11 -45 -10 -53 0 -8 7 7 14 35 8 27 12 51 10 53
-2 2 -8 -13 -14 -35z"/>
<path d="M474 1038 l-29 -33 33 29 c30 28 37 36 29 36 -2 0 -16 -15 -33 -32z"/>
<path d="M519 1013 l-24 -28 28 24 c15 14 27 26 27 28 0 8 -8 1 -31 -24z"/>
<path d="M528 988 c-13 -13 -19 -20 -14 -15 16 11 28 8 20 -5 -4 -8 -3 -10 2
-5 5 5 9 12 9 15 0 4 4 13 8 20 13 19 0 14 -25 -10z"/>
<path d="M449 953 c-13 -16 -12 -17 4 -4 9 7 17 15 17 17 0 8 -8 3 -21 -13z"/>
<path d="M509 903 c-13 -16 -12 -17 4 -4 16 13 21 21 13 21 -2 0 -10 -8 -17
-17z"/>
<path d="M531 791 c-8 -6 -9 -11 -3 -15 6 -3 14 -1 17 5 9 14 2 20 -14 10z"/>
<path d="M920 671 c30 -22 170 -60 237 -65 l68 -6 -78 14 c-64 12 -142 33
-227 62 -13 5 -13 4 0 -5z"/>
<path d="M1128 573 c6 -2 18 -2 25 0 6 3 1 5 -13 5 -14 0 -19 -2 -12 -5z"/>
<path d="M1349 533 c-13 -21 -46 -63 -73 -93 l-50 -55 55 53 c31 30 66 71 78
93 28 50 20 51 -10 2z"/>
<path d="M1356 498 l-17 -33 20 24 c18 20 27 41 18 41 -1 0 -11 -15 -21 -32z"/>
<path d="M725 445 c3 -16 16 -44 28 -62 21 -31 74 -69 83 -60 3 2 -11 14 -31
26 -24 14 -44 38 -61 73 -17 36 -24 43 -19 23z"/>
<path d="M740 345 c0 -2 10 -10 23 -16 20 -11 21 -11 8 4 -13 16 -31 23 -31
12z"/>
</g>
</svg>
